# xmcd
#
# Track frame offsets:
#	225
#	13215
#	29371
#	45349
#	56661
#	69030
#	86722
#	103571
#	114709
#	130897
#
# Disc length: 2205 seconds
#
# Revision: 0
# Processed by: cddbd v1.5.2PL0 Copyright (c) Steve Scherf et al.
# Submitted via: audiograbber 1.83.01
#
DISCID=7f089a0a
DTITLE=Huge Sally - Cold Hearted Bastard (Limited Edition)
DYEAR=2007
DGENRE=Blues
TTITLE0=Reckless Abandon
TTITLE1=Faith
TTITLE2=Awkward Position
TTITLE3=Favorite Shirt
TTITLE4=Warrior
TTITLE5=Freight Train
TTITLE6=Popsicle
TTITLE7=Never Rain Again
TTITLE8=Eagle
TTITLE9=All Is Well
EXTD=http://myspace.com/hugesally
EXTT0=
EXTT1=
EXTT2=
EXTT3=
EXTT4=
EXTT5=
EXTT6=
EXTT7=
EXTT8=
EXTT9=
PLAYORDER=
